<svg xmlns="http://www.w3.org/2000/svg" width="32" height="24" viewBox="0 0 32 24">
  <metadata><?xpacket begin="﻿" id="W5M0MpCehiHzreSzNTczkc9d"?>
<x:xmpmeta xmlns:x="adobe:ns:meta/" x:xmptk="Adobe XMP Core 5.6-c138 79.159824, 2016/09/14-01:09:01        ">
   <rdf:RDF xmlns:rdf="http://www.w3.org/1999/02/22-rdf-syntax-ns#">
      <rdf:Description rdf:about=""/>
   </rdf:RDF>
</x:xmpmeta>
                                                                                                    
                                                                                                    
                                                                                                    
                                                                                                    
                                                                                                    
                                                                                                    
                                                                                                    
                                                                                                    
                                                                                                    
                                                                                                    
                                                                                                    
                                                                                                    
                                                                                                    
                                                                                                    
                                                                                                    
                                                                                                    
                                                                                                    
                                                                                                    
                                                                                                    
                                                                                                    
                           
<?xpacket end="w"?></metadata>
<defs>
    <style>
      .cls-1 {
        fill: #fff;
        fill-rule: evenodd;
      }
    </style>
  </defs>
  <path id="Envelope" class="cls-1" d="M2104.09,7056h-24.18a3.886,3.886,0,0,0-3.91,3.86v16.28a3.886,3.886,0,0,0,3.91,3.86h24.18a3.892,3.892,0,0,0,3.91-3.86v-16.28A3.88,3.88,0,0,0,2104.09,7056Zm2.13,20.14a2.119,2.119,0,0,1-2.13,2.1h-24.18a2.11,2.11,0,0,1-2.12-2.1v-16.28a2.108,2.108,0,0,1,2.12-2.09h24.18a2.108,2.108,0,0,1,2.12,2.09v16.28h0.01Zm-10.04-8.34,7.83-6.92a0.885,0.885,0,0,0,.06-1.25,0.9,0.9,0,0,0-1.26-.06l-10.79,9.54-2.11-1.85c-0.01,0-.01-0.01-0.01-0.02l-0.15-.12-8.57-7.56a0.907,0.907,0,0,0-1.26.07,0.877,0.877,0,0,0,.07,1.25l7.92,6.98-7.88,7.27a0.876,0.876,0,0,0-.04,1.25,0.9,0.9,0,0,0,.65.28,0.888,0.888,0,0,0,.61-0.24l8.01-7.38,2.17,1.92a0.938,0.938,0,0,0,.59.22,0.92,0.92,0,0,0,.6-0.23l2.23-1.97,7.96,7.45a0.907,0.907,0,0,0,1.26-.03,0.875,0.875,0,0,0-.03-1.25Z" transform="translate(-2076 -7056)"/>
</svg>
